<?xml version="1.0" encoding="UTF-8" standalone="no"?>
<!-- Created with Inkscape (http://www.inkscape.org/) -->

<svg
   xmlns:dc="http://purl.org/dc/elements/1.1/"
   xmlns:cc="http://creativecommons.org/ns#"
   xmlns:rdf="http://www.w3.org/1999/02/22-rdf-syntax-ns#"
   xmlns:svg="http://www.w3.org/2000/svg"
   xmlns="http://www.w3.org/2000/svg"
   xmlns:xlink="http://www.w3.org/1999/xlink"
   xmlns:sodipodi="http://sodipodi.sourceforge.net/DTD/sodipodi-0.dtd"
   xmlns:inkscape="http://www.inkscape.org/namespaces/inkscape"
   width="192"
   height="192"
   viewBox="0 0 192 192"
   id="svg2"
   version="1.1"
   inkscape:version="0.91 r13725"
   sodipodi:docname="icon.svg"
   inkscape:export-filename="/home/gil/Projectos/PapyrosMediaPlayerGuiDev/icon.ico"
   inkscape:export-xdpi="90"
   inkscape:export-ydpi="90">
  <defs
     id="defs4">
    <linearGradient
       id="linearGradient4771"
       inkscape:collect="always">
      <stop
         id="stop4773"
         offset="0"
         style="stop-color:#ffffff;stop-opacity:0.15686275" />
      <stop
         id="stop4775"
         offset="1"
         style="stop-color:#ffffff;stop-opacity:0" />
    </linearGradient>
    <linearGradient
       id="linearGradient4765"
       inkscape:collect="always">
      <stop
         id="stop4767"
         offset="0"
         style="stop-color:#000000;stop-opacity:0.11764706" />
      <stop
         id="stop4769"
         offset="1"
         style="stop-color:#000000;stop-opacity:0;" />
    </linearGradient>
    <linearGradient
       inkscape:collect="always"
       id="linearGradient4443">
      <stop
         style="stop-color:#000000;stop-opacity:0.11764706"
         offset="0"
         id="stop4445" />
      <stop
         style="stop-color:#000000;stop-opacity:0;"
         offset="1"
         id="stop4447" />
    </linearGradient>
    <linearGradient
       inkscape:collect="always"
       id="linearGradient4396">
      <stop
         style="stop-color:#000000;stop-opacity:0.15686275"
         offset="0"
         id="stop4398" />
      <stop
         style="stop-color:#000000;stop-opacity:0;"
         offset="1"
         id="stop4400" />
    </linearGradient>
    <clipPath
       clipPathUnits="userSpaceOnUse"
       id="clipPath4392">
      <path
         style="fill:#000000;fill-opacity:1;fill-rule:evenodd;stroke:none;stroke-width:1px;stroke-linecap:butt;stroke-linejoin:miter;stroke-opacity:1"
         d="m 8,972.3622 80,80 104,0 0,-186 -56,0 z"
         id="path4394"
         inkscape:connector-curvature="0" />
    </clipPath>
    <linearGradient
       inkscape:collect="always"
       xlink:href="#linearGradient4765"
       id="linearGradient4402"
       x1="64"
       y1="948.36218"
       x2="168"
       y2="1052.3622"
       gradientUnits="userSpaceOnUse" />
    <clipPath
       clipPathUnits="userSpaceOnUse"
       id="clipPath4437">
      <path
         id="path4439"
         style="fill:url(#linearGradient4441);fill-opacity:1;stroke:none"
         d="m 72,956.3622 c -4.432,0 -8,3.568 -8,8 l 0,72 c 0,4.432 3.568,8 8,8 l 104,0 c 4.432,0 8,-3.568 8,-8 l 0,-72 c 0,-4.432 -3.568,-8 -8,-8 l -104,0 z m 6,8 c 3.324,0 6,2.676 6,6 0,3.324 -2.676,6 -6,6 -3.324,0 -6,-2.676 -6,-6 0,-3.324 2.676,-6 6,-6 z m 92,0 c 3.324,0 6,2.676 6,6 0,3.324 -2.676,6 -6,6 -3.324,0 -6,-2.676 -6,-6 0,-3.324 2.676,-6 6,-6 z m -92,20 c 3.324,0 6,2.676 6,6 0,3.324 -2.676,6 -6,6 -3.324,0 -6,-2.676 -6,-6 0,-3.324 2.676,-6 6,-6 z m 92,0 c 3.324,0 6,2.676 6,6 0,3.324 -2.676,6 -6,6 -3.324,0 -6,-2.676 -6,-6 0,-3.324 2.676,-6 6,-6 z m -92,20 c 3.324,0 6,2.676 6,6 0,3.324 -2.676,6 -6,6 -3.324,0 -6,-2.676 -6,-6 0,-3.324 2.676,-6 6,-6 z m 92,0 c 3.324,0 6,2.676 6,6 0,3.324 -2.676,6 -6,6 -3.324,0 -6,-2.676 -6,-6 0,-3.324 2.676,-6 6,-6 z m -92,20 c 3.324,0 6,2.676 6,6 0,3.324 -2.676,6 -6,6 -3.324,0 -6,-2.676 -6,-6 0,-3.324 2.676,-6 6,-6 z m 92,0 c 3.324,0 6,2.676 6,6 0,3.324 -2.676,6 -6,6 -3.324,0 -6,-2.676 -6,-6 0,-3.324 2.676,-6 6,-6 z m -98,-66 c -4.432,0 -8,3.568 -8,8 l 0,72 c 0,4.432 3.568,8 8,8 l 104,0 c 4.432,0 8,-3.568 8,-8 l 0,-72 c 0,-4.432 -3.568,-8 -8,-8 l -104,0 z m 6,8 c 3.324,0 6,2.676 6,6 0,3.324 -2.676,6 -6,6 -3.324,0 -6,-2.676 -6,-6 0,-3.324 2.676,-6 6,-6 z m 92,0 c 3.324,0 6,2.676 6,6 0,3.324 -2.676,6 -6,6 -3.324,0 -6,-2.676 -6,-6 0,-3.324 2.676,-6 6,-6 z m -92,20 c 3.324,0 6,2.676 6,6 0,3.324 -2.676,6 -6,6 -3.324,0 -6,-2.676 -6,-6 0,-3.324 2.676,-6 6,-6 z m 92,0 c 3.324,0 6,2.676 6,6 0,3.324 -2.676,6 -6,6 -3.324,0 -6,-2.676 -6,-6 0,-3.324 2.676,-6 6,-6 z m -92,20 c 3.324,0 6,2.676 6,6 0,3.324 -2.676,6 -6,6 -3.324,0 -6,-2.676 -6,-6 0,-3.324 2.676,-6 6,-6 z m 92,0 c 3.324,0 6,2.676 6,6 0,3.324 -2.676,6 -6,6 -3.324,0 -6,-2.676 -6,-6 0,-3.324 2.676,-6 6,-6 z m -92,20 c 3.324,0 6,2.676 6,6 0,3.324 -2.676,6 -6,6 -3.324,0 -6,-2.676 -6,-6 0,-3.324 2.676,-6 6,-6 z m 92,0 c 3.324,0 6,2.676 6,6 0,3.324 -2.676,6 -6,6 -3.324,0 -6,-2.676 -6,-6 0,-3.324 2.676,-6 6,-6 z m -98,-72 c -4.432,0 -8,3.568 -8,8 l 0,72 c 0,4.432 3.568,8 8,8 l 104,0 c 4.432,0 8,-3.568 8,-8 l 0,-72 c 0,-4.432 -3.568,-8 -8,-8 l -104,0 z m 6,8 c 3.324,0 6,2.676 6,6 0,3.324 -2.676,6 -6,6 -3.324,0 -6,-2.676 -6,-6 0,-3.324 2.676,-6 6,-6 z m 92,0 c 3.324,0 6,2.676 6,6 0,3.324 -2.676,6 -6,6 -3.324,0 -6,-2.676 -6,-6 0,-3.324 2.676,-6 6,-6 z m -92,20 c 3.324,0 6,2.676 6,6 0,3.324 -2.676,6 -6,6 -3.324,0 -6,-2.676 -6,-6 0,-3.324 2.676,-6 6,-6 z m 92,0 c 3.324,0 6,2.676 6,6 0,3.324 -2.676,6 -6,6 -3.324,0 -6,-2.676 -6,-6 0,-3.324 2.676,-6 6,-6 z m -92,20 c 3.324,0 6,2.676 6,6 0,3.324 -2.676,6 -6,6 -3.324,0 -6,-2.676 -6,-6 0,-3.324 2.676,-6 6,-6 z m 92,0 c 3.324,0 6,2.676 6,6 0,3.324 -2.676,6 -6,6 -3.324,0 -6,-2.676 -6,-6 0,-3.324 2.676,-6 6,-6 z m -92,20 c 3.324,0 6,2.676 6,6 0,3.324 -2.676,6 -6,6 -3.324,0 -6,-2.676 -6,-6 0,-3.324 2.676,-6 6,-6 z m 92,0 c 3.324,0 6,2.676 6,6 0,3.324 -2.676,6 -6,6 -3.324,0 -6,-2.676 -6,-6 0,-3.324 2.676,-6 6,-6 z"
         inkscape:connector-curvature="0"
         clip-path="none" />
    </clipPath>
    <linearGradient
       inkscape:collect="always"
       xlink:href="#linearGradient4396"
       id="linearGradient4441"
       gradientUnits="userSpaceOnUse"
       x1="64"
       y1="948.36218"
       x2="168"
       y2="1052.3622" />
    <linearGradient
       inkscape:collect="always"
       xlink:href="#linearGradient4443"
       id="linearGradient4449"
       x1="96"
       y1="956.36218"
       x2="192"
       y2="1052.3622"
       gradientUnits="userSpaceOnUse" />
    <filter
       style="color-interpolation-filters:sRGB;"
       inkscape:label="Drop Shadow"
       id="filter4679">
      <feFlood
         flood-opacity="0.2"
         flood-color="rgb(0,0,0)"
         result="flood"
         id="feFlood4681" />
      <feComposite
         in="flood"
         in2="SourceGraphic"
         operator="in"
         result="composite1"
         id="feComposite4683" />
      <feGaussianBlur
         in="composite1"
         stdDeviation="4"
         result="blur"
         id="feGaussianBlur4685" />
      <feOffset
         dx="0"
         dy="4"
         result="offset"
         id="feOffset4687" />
      <feComposite
         in="SourceGraphic"
         in2="offset"
         operator="over"
         result="composite2"
         id="feComposite4689" />
    </filter>
    <linearGradient
       inkscape:collect="always"
       xlink:href="#linearGradient4771"
       id="linearGradient4712"
       x1="8"
       y1="868.36218"
       x2="136"
       y2="996.36218"
       gradientUnits="userSpaceOnUse" />
    <linearGradient
       inkscape:collect="always"
       xlink:href="#linearGradient4771"
       id="linearGradient4741"
       x1="64"
       y1="956.36218"
       x2="184"
       y2="1076.3622"
       gradientUnits="userSpaceOnUse" />
    <linearGradient
       inkscape:collect="always"
       xlink:href="#linearGradient4771"
       id="linearGradient4753"
       gradientUnits="userSpaceOnUse"
       x1="64"
       y1="868.36218"
       x2="64"
       y2="996.36218" />
    <linearGradient
       inkscape:collect="always"
       xlink:href="#linearGradient4771"
       id="linearGradient4763"
       gradientUnits="userSpaceOnUse"
       x1="128"
       y1="956.36218"
       x2="128"
       y2="1044.3622" />
  </defs>
  <sodipodi:namedview
     id="base"
     pagecolor="#ffffff"
     bordercolor="#666666"
     borderopacity="1.0"
     inkscape:pageopacity="0.0"
     inkscape:pageshadow="2"
     inkscape:zoom="5.6568542"
     inkscape:cx="109.70423"
     inkscape:cy="108.69933"
     inkscape:document-units="px"
     inkscape:current-layer="layer1"
     showgrid="true"
     inkscape:snap-bbox="true"
     units="px"
     inkscape:bbox-paths="true"
     inkscape:bbox-nodes="true"
     inkscape:window-width="1920"
     inkscape:window-height="1005"
     inkscape:window-x="0"
     inkscape:window-y="0"
     inkscape:window-maximized="1"
     showguides="false"
     inkscape:snap-bbox-midpoints="false"
     inkscape:snap-bbox-edge-midpoints="false"
     inkscape:object-paths="false"
     inkscape:snap-midpoints="false">
    <inkscape:grid
       type="xygrid"
       id="grid3336"
       empspacing="2"
       spacingx="8.0000001"
       spacingy="8.0000001"
       dotted="false" />
    <inkscape:grid
       type="xygrid"
       id="grid3338"
       empspacing="4"
       color="#3fd1ff"
       opacity="0.1254902"
       empcolor="#3fff57"
       empopacity="0.25098039"
       dotted="true" />
  </sodipodi:namedview>
  <metadata
     id="metadata7">
    <rdf:RDF>
      <cc:Work
         rdf:about="">
        <dc:format>image/svg+xml</dc:format>
        <dc:type
           rdf:resource="http://purl.org/dc/dcmitype/StillImage" />
        <dc:title></dc:title>
      </cc:Work>
    </rdf:RDF>
  </metadata>
  <g
     inkscape:label="Camada 1"
     inkscape:groupmode="layer"
     id="layer1"
     transform="translate(0,-860.3622)">
    <path
       inkscape:connector-curvature="0"
       style="fill:#ffcc80;fill-opacity:1;stroke:none"
       d="m 72,954.3622 c -4.432,0 -8,3.568 -8,8 l 0,72 c 0,4.432 3.568,8 8,8 l 104,0 c 4.432,0 8,-3.568 8,-8 l 0,-72 c 0,-4.432 -3.568,-8 -8,-8 l -104,0 z m 6,8 c 3.324,0 6,2.676 6,6 0,3.324 -2.676,6 -6,6 -3.324,0 -6,-2.676 -6,-6 0,-3.324 2.676,-6 6,-6 z m 92,0 c 3.324,0 6,2.676 6,6 0,3.324 -2.676,6 -6,6 -3.324,0 -6,-2.676 -6,-6 0,-3.324 2.676,-6 6,-6 z m -92,20 c 3.324,0 6,2.676 6,6 0,3.324 -2.676,6 -6,6 -3.324,0 -6,-2.676 -6,-6 0,-3.324 2.676,-6 6,-6 z m 92,0 c 3.324,0 6,2.676 6,6 0,3.324 -2.676,6 -6,6 -3.324,0 -6,-2.676 -6,-6 0,-3.324 2.676,-6 6,-6 z m -92,20 c 3.324,0 6,2.676 6,6 0,3.324 -2.676,6 -6,6 -3.324,0 -6,-2.676 -6,-6 0,-3.324 2.676,-6 6,-6 z m 92,0 c 3.324,0 6,2.676 6,6 0,3.324 -2.676,6 -6,6 -3.324,0 -6,-2.676 -6,-6 0,-3.324 2.676,-6 6,-6 z m -92,20 c 3.324,0 6,2.676 6,6 0,3.324 -2.676,6 -6,6 -3.324,0 -6,-2.676 -6,-6 0,-3.324 2.676,-6 6,-6 z m 92,0 c 3.324,0 6,2.676 6,6 0,3.324 -2.676,6 -6,6 -3.324,0 -6,-2.676 -6,-6 0,-3.324 2.676,-6 6,-6 z"
       id="rect4142-3" />
    <path
       inkscape:connector-curvature="0"
       style="fill:#ef6c00;fill-opacity:1;stroke:none"
       d="m 72,958.3622 c -4.432,0 -8,3.568 -8,8 l 0,72 c 0,4.432 3.568,8 8,8 l 104,0 c 4.432,0 8,-3.568 8,-8 l 0,-72 c 0,-4.432 -3.568,-8 -8,-8 l -104,0 z m 6,8 c 3.324,0 6,2.676 6,6 0,3.324 -2.676,6 -6,6 -3.324,0 -6,-2.676 -6,-6 0,-3.324 2.676,-6 6,-6 z m 92,0 c 3.324,0 6,2.676 6,6 0,3.324 -2.676,6 -6,6 -3.324,0 -6,-2.676 -6,-6 0,-3.324 2.676,-6 6,-6 z m -92,20 c 3.324,0 6,2.676 6,6 0,3.324 -2.676,6 -6,6 -3.324,0 -6,-2.676 -6,-6 0,-3.324 2.676,-6 6,-6 z m 92,0 c 3.324,0 6,2.676 6,6 0,3.324 -2.676,6 -6,6 -3.324,0 -6,-2.676 -6,-6 0,-3.324 2.676,-6 6,-6 z m -92,20 c 3.324,0 6,2.676 6,6 0,3.324 -2.676,6 -6,6 -3.324,0 -6,-2.676 -6,-6 0,-3.324 2.676,-6 6,-6 z m 92,0 c 3.324,0 6,2.676 6,6 0,3.324 -2.676,6 -6,6 -3.324,0 -6,-2.676 -6,-6 0,-3.324 2.676,-6 6,-6 z m -92,20 c 3.324,0 6,2.676 6,6 0,3.324 -2.676,6 -6,6 -3.324,0 -6,-2.676 -6,-6 0,-3.324 2.676,-6 6,-6 z m 92,0 c 3.324,0 6,2.676 6,6 0,3.324 -2.676,6 -6,6 -3.324,0 -6,-2.676 -6,-6 0,-3.324 2.676,-6 6,-6 z"
       id="rect4142-3-5" />
    <path
       inkscape:connector-curvature="0"
       id="path4245-8-9"
       style="fill:#ff9800;fill-opacity:1;stroke:none"
       d="m 136,954.36209 a 24,20.000044 0 0 1 -24,20.00005 24,20.000044 0 0 1 -24,-20.00005 24,20.000044 0 0 1 24,-20.00004 24,20.000044 0 0 1 24,20.00004 z m -8,-85.99998 8,-2.00002 0,88.00005 -8,0 z m -80,13.99998 88,-15.99998 -8,18 -72,14 0,72.00003 -8,0 z m 8,88.00006 A 24,20.000044 0 0 1 32,990.3622 24,20.000044 0 0 1 8,970.36215 24,20.000044 0 0 1 32,950.36211 24,20.000044 0 0 1 56,970.36215 Z" />
    <path
       style="fill:#ff9800;fill-opacity:1;stroke:none"
       d="M 72 96 C 67.568 96 64 99.568 64 104 L 64 176 C 64 180.432 67.568 184 72 184 L 176 184 C 180.432 184 184 180.432 184 176 L 184 104 C 184 99.568 180.432 96 176 96 L 72 96 z M 78 104 C 81.324 104 84 106.676 84 110 C 84 113.324 81.324 116 78 116 C 74.676 116 72 113.324 72 110 C 72 106.676 74.676 104 78 104 z M 170 104 C 173.324 104 176 106.676 176 110 C 176 113.324 173.324 116 170 116 C 166.676 116 164 113.324 164 110 C 164 106.676 166.676 104 170 104 z M 78 124 C 81.324 124 84 126.676 84 130 C 84 133.324 81.324 136 78 136 C 74.676 136 72 133.324 72 130 C 72 126.676 74.676 124 78 124 z M 170 124 C 173.324 124 176 126.676 176 130 C 176 133.324 173.324 136 170 136 C 166.676 136 164 133.324 164 130 C 164 126.676 166.676 124 170 124 z M 78 144 C 81.324 144 84 146.676 84 150 C 84 153.324 81.324 156 78 156 C 74.676 156 72 153.324 72 150 C 72 146.676 74.676 144 78 144 z M 170 144 C 173.324 144 176 146.676 176 150 C 176 153.324 173.324 156 170 156 C 166.676 156 164 153.324 164 150 C 164 146.676 166.676 144 170 144 z M 78 164 C 81.324 164 84 166.676 84 170 C 84 173.324 81.324 176 78 176 C 74.676 176 72 173.324 72 170 C 72 166.676 74.676 164 78 164 z M 170 164 C 173.324 164 176 166.676 176 170 C 176 173.324 173.324 176 170 176 C 166.676 176 164 173.324 164 170 C 164 166.676 166.676 164 170 164 z "
       transform="translate(0,860.3622)"
       id="rect4142" />
    <path
       inkscape:connector-curvature="0"
       style="fill:url(#linearGradient4741);fill-opacity:1.0;stroke:none"
       d="m 72,956.3622 c -4.432,0 -8,3.568 -8,8 l 0,72 c 0,4.432 3.568,8 8,8 l 104,0 c 4.432,0 8,-3.568 8,-8 l 0,-72 c 0,-4.432 -3.568,-8 -8,-8 l -104,0 z m 6,8 c 3.324,0 6,2.676 6,6 0,3.324 -2.676,6 -6,6 -3.324,0 -6,-2.676 -6,-6 0,-3.324 2.676,-6 6,-6 z m 92,0 c 3.324,0 6,2.676 6,6 0,3.324 -2.676,6 -6,6 -3.324,0 -6,-2.676 -6,-6 0,-3.324 2.676,-6 6,-6 z m -92,20 c 3.324,0 6,2.676 6,6 0,3.324 -2.676,6 -6,6 -3.324,0 -6,-2.676 -6,-6 0,-3.324 2.676,-6 6,-6 z m 92,0 c 3.324,0 6,2.676 6,6 0,3.324 -2.676,6 -6,6 -3.324,0 -6,-2.676 -6,-6 0,-3.324 2.676,-6 6,-6 z m -92,20 c 3.324,0 6,2.676 6,6 0,3.324 -2.676,6 -6,6 -3.324,0 -6,-2.676 -6,-6 0,-3.324 2.676,-6 6,-6 z m 92,0 c 3.324,0 6,2.676 6,6 0,3.324 -2.676,6 -6,6 -3.324,0 -6,-2.676 -6,-6 0,-3.324 2.676,-6 6,-6 z m -92,20 c 3.324,0 6,2.676 6,6 0,3.324 -2.676,6 -6,6 -3.324,0 -6,-2.676 -6,-6 0,-3.324 2.676,-6 6,-6 z m 92,0 c 3.324,0 6,2.676 6,6 0,3.324 -2.676,6 -6,6 -3.324,0 -6,-2.676 -6,-6 0,-3.324 2.676,-6 6,-6 z"
       id="rect4142-9" />
    <path
       id="path4761"
       d="m 72,956.3622 c -4.432,0 -8,3.568 -8,8 l 0,72 c 0,4.432 3.568,8 8,8 l 104,0 c 4.432,0 8,-3.568 8,-8 l 0,-72 c 0,-4.432 -3.568,-8 -8,-8 l -104,0 z m 6,8 c 3.324,0 6,2.676 6,6 0,3.324 -2.676,6 -6,6 -3.324,0 -6,-2.676 -6,-6 0,-3.324 2.676,-6 6,-6 z m 92,0 c 3.324,0 6,2.676 6,6 0,3.324 -2.676,6 -6,6 -3.324,0 -6,-2.676 -6,-6 0,-3.324 2.676,-6 6,-6 z m -92,20 c 3.324,0 6,2.676 6,6 0,3.324 -2.676,6 -6,6 -3.324,0 -6,-2.676 -6,-6 0,-3.324 2.676,-6 6,-6 z m 92,0 c 3.324,0 6,2.676 6,6 0,3.324 -2.676,6 -6,6 -3.324,0 -6,-2.676 -6,-6 0,-3.324 2.676,-6 6,-6 z m -92,20 c 3.324,0 6,2.676 6,6 0,3.324 -2.676,6 -6,6 -3.324,0 -6,-2.676 -6,-6 0,-3.324 2.676,-6 6,-6 z m 92,0 c 3.324,0 6,2.676 6,6 0,3.324 -2.676,6 -6,6 -3.324,0 -6,-2.676 -6,-6 0,-3.324 2.676,-6 6,-6 z m -92,20 c 3.324,0 6,2.676 6,6 0,3.324 -2.676,6 -6,6 -3.324,0 -6,-2.676 -6,-6 0,-3.324 2.676,-6 6,-6 z m 92,0 c 3.324,0 6,2.676 6,6 0,3.324 -2.676,6 -6,6 -3.324,0 -6,-2.676 -6,-6 0,-3.324 2.676,-6 6,-6 z"
       style="fill:url(#linearGradient4763);fill-opacity:1.0;stroke:none"
       inkscape:connector-curvature="0" />
    <rect
       style="fill:#009800;fill-opacity:1;stroke:none"
       id="rect4144-3"
       width="12"
       height="12"
       x="-24"
       y="1060.3622"
       rx="8"
       ry="8" />
    <rect
       style="fill:#ff9800;fill-opacity:1;stroke:none"
       id="rect4142-8"
       width="120"
       height="88"
       x="-4"
       y="1056.3622"
       rx="8"
       ry="8" />
    <rect
       style="fill:#ef6c00;fill-opacity:1;stroke:none"
       id="rect4241-4"
       width="8"
       height="88.000046"
       x="-16"
       y="940.36224" />
    <ellipse
       style="fill:#ef6c00;fill-opacity:1;stroke:none"
       id="path4245-4"
       cx="-32"
       cy="1028.3623"
       rx="24"
       ry="20.000044" />
    <path
       id="rect4142-86"
       style="fill:url(#linearGradient4402);fill-opacity:1;stroke:none"
       d="m 72,956.3622 c -4.432,0 -8,3.568 -8,8 l 0,72 c 0,4.432 3.568,8 8,8 l 104,0 c 4.432,0 8,-3.568 8,-8 l 0,-72 c 0,-4.432 -3.568,-8 -8,-8 l -104,0 z m 6,8 c 3.324,0 6,2.676 6,6 0,3.324 -2.676,6 -6,6 -3.324,0 -6,-2.676 -6,-6 0,-3.324 2.676,-6 6,-6 z m 92,0 c 3.324,0 6,2.676 6,6 0,3.324 -2.676,6 -6,6 -3.324,0 -6,-2.676 -6,-6 0,-3.324 2.676,-6 6,-6 z m -92,20 c 3.324,0 6,2.676 6,6 0,3.324 -2.676,6 -6,6 -3.324,0 -6,-2.676 -6,-6 0,-3.324 2.676,-6 6,-6 z m 92,0 c 3.324,0 6,2.676 6,6 0,3.324 -2.676,6 -6,6 -3.324,0 -6,-2.676 -6,-6 0,-3.324 2.676,-6 6,-6 z m -92,20 c 3.324,0 6,2.676 6,6 0,3.324 -2.676,6 -6,6 -3.324,0 -6,-2.676 -6,-6 0,-3.324 2.676,-6 6,-6 z m 92,0 c 3.324,0 6,2.676 6,6 0,3.324 -2.676,6 -6,6 -3.324,0 -6,-2.676 -6,-6 0,-3.324 2.676,-6 6,-6 z m -92,20 c 3.324,0 6,2.676 6,6 0,3.324 -2.676,6 -6,6 -3.324,0 -6,-2.676 -6,-6 0,-3.324 2.676,-6 6,-6 z m 92,0 c 3.324,0 6,2.676 6,6 0,3.324 -2.676,6 -6,6 -3.324,0 -6,-2.676 -6,-6 0,-3.324 2.676,-6 6,-6 z m -98,-66 c -4.432,0 -8,3.568 -8,8 l 0,72 c 0,4.432 3.568,8 8,8 l 104,0 c 4.432,0 8,-3.568 8,-8 l 0,-72 c 0,-4.432 -3.568,-8 -8,-8 l -104,0 z m 6,8 c 3.324,0 6,2.676 6,6 0,3.324 -2.676,6 -6,6 -3.324,0 -6,-2.676 -6,-6 0,-3.324 2.676,-6 6,-6 z m 92,0 c 3.324,0 6,2.676 6,6 0,3.324 -2.676,6 -6,6 -3.324,0 -6,-2.676 -6,-6 0,-3.324 2.676,-6 6,-6 z m -92,20 c 3.324,0 6,2.676 6,6 0,3.324 -2.676,6 -6,6 -3.324,0 -6,-2.676 -6,-6 0,-3.324 2.676,-6 6,-6 z m 92,0 c 3.324,0 6,2.676 6,6 0,3.324 -2.676,6 -6,6 -3.324,0 -6,-2.676 -6,-6 0,-3.324 2.676,-6 6,-6 z m -92,20 c 3.324,0 6,2.676 6,6 0,3.324 -2.676,6 -6,6 -3.324,0 -6,-2.676 -6,-6 0,-3.324 2.676,-6 6,-6 z m 92,0 c 3.324,0 6,2.676 6,6 0,3.324 -2.676,6 -6,6 -3.324,0 -6,-2.676 -6,-6 0,-3.324 2.676,-6 6,-6 z m -92,20 c 3.324,0 6,2.676 6,6 0,3.324 -2.676,6 -6,6 -3.324,0 -6,-2.676 -6,-6 0,-3.324 2.676,-6 6,-6 z m 92,0 c 3.324,0 6,2.676 6,6 0,3.324 -2.676,6 -6,6 -3.324,0 -6,-2.676 -6,-6 0,-3.324 2.676,-6 6,-6 z m -98,-72 c -4.432,0 -8,3.568 -8,8 l 0,72 c 0,4.432 3.568,8 8,8 l 104,0 c 4.432,0 8,-3.568 8,-8 l 0,-72 c 0,-4.432 -3.568,-8 -8,-8 l -104,0 z m 6,8 c 3.324,0 6,2.676 6,6 0,3.324 -2.676,6 -6,6 -3.324,0 -6,-2.676 -6,-6 0,-3.324 2.676,-6 6,-6 z m 92,0 c 3.324,0 6,2.676 6,6 0,3.324 -2.676,6 -6,6 -3.324,0 -6,-2.676 -6,-6 0,-3.324 2.676,-6 6,-6 z m -92,20 c 3.324,0 6,2.676 6,6 0,3.324 -2.676,6 -6,6 -3.324,0 -6,-2.676 -6,-6 0,-3.324 2.676,-6 6,-6 z m 92,0 c 3.324,0 6,2.676 6,6 0,3.324 -2.676,6 -6,6 -3.324,0 -6,-2.676 -6,-6 0,-3.324 2.676,-6 6,-6 z m -92,20 c 3.324,0 6,2.676 6,6 0,3.324 -2.676,6 -6,6 -3.324,0 -6,-2.676 -6,-6 0,-3.324 2.676,-6 6,-6 z m 92,0 c 3.324,0 6,2.676 6,6 0,3.324 -2.676,6 -6,6 -3.324,0 -6,-2.676 -6,-6 0,-3.324 2.676,-6 6,-6 z m -92,20 c 3.324,0 6,2.676 6,6 0,3.324 -2.676,6 -6,6 -3.324,0 -6,-2.676 -6,-6 0,-3.324 2.676,-6 6,-6 z m 92,0 c 3.324,0 6,2.676 6,6 0,3.324 -2.676,6 -6,6 -3.324,0 -6,-2.676 -6,-6 0,-3.324 2.676,-6 6,-6 z"
       inkscape:connector-curvature="0"
       clip-path="url(#clipPath4392)" />
    <path
       style="fill:url(#linearGradient4449);fill-opacity:1;fill-rule:evenodd;stroke:none;stroke-width:1px;stroke-linecap:butt;stroke-linejoin:miter;stroke-opacity:1"
       d="m 94.503903,972.04916 80.480487,80.31304 17.01561,0 0,-96 0,-16 -96,0 z"
       id="path4404"
       inkscape:connector-curvature="0"
       sodipodi:nodetypes="ccccccc"
       clip-path="url(#clipPath4437)" />
    <path
       inkscape:connector-curvature="0"
       id="path4245-8-2"
       style="fill:#e65100;fill-opacity:1;stroke:none;filter:url(#filter4679)"
       d="m 136,958.36208 a 24,20.000044 0 0 1 -24,20.00002 24,20.000044 0 0 1 -24,-20.00002 24,20.000044 0 0 1 24,-20.00004 24,20.000044 0 0 1 24,20.00004 z m -8,-85.99998 8,-2.00002 0,88.00005 -8,0 z m -80,13.99998 88,-15.99998 -8,18 -72,14 0,72.00003 -8,0 z m 8,88.00006 A 24,20.000044 0 0 1 32,994.3622 24,20.000044 0 0 1 8,974.36214 24,20.000044 0 0 1 32,954.3621 24,20.000044 0 0 1 56,974.36214 Z" />
    <path
       id="path4245-8"
       style="fill:#ef6c00;fill-opacity:1;stroke:none"
       d="m 136,956.36218 a 24,20.000044 0 0 1 -24,20.00005 24,20.000044 0 0 1 -24,-20.00005 24,20.000044 0 0 1 24,-20.00004 24,20.000044 0 0 1 24,20.00004 z m -8,-85.99998 8,-2.00002 0,88.00005 -8,0 z m -80,13.99998 88,-15.99998 -8,18 -72,14 0,72.00003 -8,0 z m 8,88.00006 A 24,20.000044 0 0 1 32,992.36229 24,20.000044 0 0 1 8,972.36224 24,20.000044 0 0 1 32,952.3622 24,20.000044 0 0 1 56,972.36224 Z" />
    <path
       inkscape:connector-curvature="0"
       id="path4245-8-94"
       style="fill:url(#linearGradient4712);fill-opacity:1.0;stroke:none"
       d="m 136,956.36209 a 24,20.000044 0 0 1 -24,20.00005 24,20.000044 0 0 1 -24,-20.00005 24,20.000044 0 0 1 24,-20.00004 24,20.000044 0 0 1 24,20.00004 z m -8,-85.99998 8,-2.00002 0,88.00005 -8,0 z m -80,13.99998 88,-15.99998 -8,18 -72,14 0,72.00003 -8,0 z m 8,88.00006 A 24,20.000044 0 0 1 32,992.3622 24,20.000044 0 0 1 8,972.36215 24,20.000044 0 0 1 32,952.36211 24,20.000044 0 0 1 56,972.36215 Z" />
    <path
       d="m 136,956.36209 a 24,20.000044 0 0 1 -24,20.00005 24,20.000044 0 0 1 -24,-20.00005 24,20.000044 0 0 1 24,-20.00004 24,20.000044 0 0 1 24,20.00004 z m -8,-85.99998 8,-2.00002 0,88.00005 -8,0 z m -80,13.99998 88,-15.99998 -8,18 -72,14 0,72.00003 -8,0 z m 8,88.00006 A 24,20.000044 0 0 1 32,992.3622 24,20.000044 0 0 1 8,972.36215 24,20.000044 0 0 1 32,952.36211 24,20.000044 0 0 1 56,972.36215 Z"
       style="fill:url(#linearGradient4753);fill-opacity:1.0;stroke:none"
       id="path4751"
       inkscape:connector-curvature="0" />
  </g>
</svg>
